<?xml version="1.0" standalone="no"?>
<!DOCTYPE svg PUBLIC "-//W3C//DTD SVG 20010904//EN"
 "http://www.w3.org/TR/2001/REC-SVG-20010904/DTD/svg10.dtd">
<svg version="1.0" xmlns="http://www.w3.org/2000/svg"
 width="1012.000000pt" height="1012.000000pt" viewBox="0 0 1012.000000 1012.000000"
 preserveAspectRatio="xMidYMid meet">

<g transform="translate(0.000000,1012.000000) scale(0.100000,-0.100000)"
fill="#000000" stroke="none">
<path d="M1662 8739 c-139 -27 -255 -146 -282 -289 -14 -75 -13 -1778 1 -1855
6 -33 20 -77 31 -99 25 -48 107 -130 156 -155 82 -41 108 -42 1062 -39 l915 3
65 31 c36 17 82 49 104 70 21 22 53 68 70 104 l31 65 0 950 0 950 -26 56 c-36
76 -124 161 -197 191 l-57 23 -915 2 c-503 0 -934 -3 -958 -8z m1639 -344 c59
-20 112 -65 147 -123 l27 -47 0 -700 c0 -664 -1 -702 -19 -735 -26 -49 -74
-98 -121 -123 -40 -22 -41 -22 -740 -22 l-700 0 -47 27 c-58 35 -103 88 -123
147 -22 66 -23 1332 0 1408 18 62 97 145 158 167 64 22 1352 23 1418 1z"/>
<path d="M2195 8039 c-59 -14 -102 -61 -115 -125 -7 -34 -10 -182 -8 -426 3
-363 4 -374 25 -408 12 -19 37 -44 55 -55 31 -19 54 -20 413 -23 416 -4 465 0
508 46 45 47 48 88 45 502 -4 540 42 494 -503 497 -214 1 -397 -3 -420 -8z"/>
<path d="M4614 8731 c-52 -24 -74 -68 -74 -151 0 -83 22 -127 74 -151 84 -38
195 -18 240 44 30 41 30 173 0 214 -45 62 -156 82 -240 44z"/>
<path d="M5670 8732 c-51 -25 -75 -74 -75 -152 0 -113 54 -170 162 -170 71 0
128 24 153 65 28 46 28 164 0 210 -37 61 -164 86 -240 47z"/>
<path d="M6593 8740 c-109 -22 -213 -106 -262 -209 l-26 -56 0 -950 0 -950 31
-65 c40 -82 92 -134 174 -174 l65 -31 915 -3 c954 -3 980 -2 1062 39 49 25
131 107 156 156 41 80 43 129 40 1068 -3 720 -6 907 -17 936 -35 95 -135 195
-230 230 -29 11 -216 14 -951 15 -503 1 -934 -2 -957 -6z m1639 -346 c66 -22
144 -102 163 -167 23 -76 22 -1342 0 -1408 -20 -59 -65 -112 -123 -147 l-47
-27 -700 0 c-664 0 -702 1 -735 19 -49 26 -98 74 -123 121 -22 40 -22 41 -22
740 l0 700 27 47 c16 25 45 60 65 77 74 61 56 59 784 60 580 1 671 -1 711 -15z"/>
<path d="M7135 8043 c-47 -11 -86 -38 -107 -72 -23 -36 -23 -41 -26 -421 -3
-414 0 -455 45 -502 43 -46 92 -50 508 -46 359 3 382 4 413 23 18 11 43 36 55
55 21 34 22 45 25 408 2 244 -1 392 -8 426 -14 66 -56 111 -120 125 -45 10
-744 14 -785 4z"/>
<path d="M4285 8390 c-71 -24 -95 -64 -95 -160 0 -124 45 -170 167 -170 67 0
117 21 147 63 16 21 20 43 20 100 1 85 -18 128 -66 153 -38 20 -132 27 -173
14z"/>
<path d="M5322 8381 c-59 -28 -87 -89 -79 -174 9 -101 63 -147 172 -147 112 0
165 53 165 165 0 112 -46 164 -151 171 -50 4 -74 0 -107 -15z"/>
<path d="M4650 8043 c-70 -14 -110 -76 -110 -168 0 -119 47 -165 168 -165 121
0 166 43 167 160 0 80 -17 124 -61 151 -34 21 -117 32 -164 22z"/>
<path d="M4253 7670 c-47 -28 -63 -67 -63 -150 0 -110 37 -155 137 -167 136
-16 215 67 198 206 -6 46 -13 62 -45 93 -37 38 -39 38 -116 38 -61 0 -86 -5
-111 -20z"/>
<path d="M5309 7673 c-43 -26 -61 -68 -68 -159 -10 -129 -57 -174 -179 -174
-78 0 -127 -21 -149 -64 -9 -17 -19 -68 -23 -114 -8 -93 -25 -126 -81 -154
-29 -16 -65 -18 -266 -18 -262 0 -297 -7 -333 -65 -19 -30 -20 -49 -20 -281 0
-232 1 -251 20 -282 26 -42 73 -62 147 -62 117 0 162 45 170 171 6 100 26 138
82 164 55 24 178 18 218 -11 59 -43 63 -65 63 -327 0 -214 2 -241 19 -275 35
-69 50 -72 313 -72 128 0 249 -5 269 -10 19 -5 48 -24 65 -41 l29 -30 5 -262
c7 -380 -13 -360 362 -367 239 -5 258 -6 285 -26 43 -31 63 -80 63 -152 0 -85
21 -129 74 -153 53 -24 140 -25 185 -1 57 28 72 58 80 159 8 93 19 121 63 151
19 14 62 18 285 22 245 5 263 6 290 26 42 31 63 80 63 147 0 118 -40 158 -171
167 -133 10 -179 56 -179 179 0 121 -49 171 -170 171 -124 0 -159 -37 -170
-176 -10 -128 -58 -174 -181 -174 -119 0 -179 51 -179 152 -1 80 -15 128 -49
162 -29 28 -38 31 -120 37 -99 7 -137 24 -167 73 -18 29 -19 66 -24 641 -5
560 -6 613 -22 638 -26 39 -54 50 -150 58 -102 8 -137 28 -162 89 -9 22 -16
65 -16 96 0 119 -47 164 -170 164 -52 0 -83 -6 -101 -17z m207 -689 c18 -9 43
-31 54 -49 19 -30 20 -49 20 -299 l0 -266 -40 -40 -40 -40 -91 0 c-106 0 -140
14 -170 72 -17 34 -19 61 -19 280 0 277 7 309 71 341 45 22 169 23 215 1z"/>
<path d="M3561 5922 c-62 -31 -76 -62 -76 -162 0 -80 2 -91 25 -115 38 -41 58
-48 148 -55 128 -10 172 -56 172 -178 0 -125 -43 -170 -167 -175 -135 -5 -183
-52 -183 -177 0 -125 48 -172 183 -177 124 -5 167 -50 167 -175 0 -122 45
-165 184 -177 52 -5 95 -15 111 -25 53 -35 55 -50 55 -498 0 -460 0 -459 69
-505 28 -19 48 -23 112 -23 70 0 81 3 110 27 59 50 59 53 59 503 0 444 -1 438
55 490 23 22 37 25 113 28 73 2 92 0 119 -17 52 -33 65 -62 68 -152 4 -127 45
-168 179 -179 136 -11 166 -42 176 -181 6 -75 10 -93 31 -115 37 -39 57 -47
147 -54 128 -10 172 -56 172 -178 0 -125 -43 -170 -167 -175 -135 -5 -183 -52
-183 -177 0 -125 48 -172 183 -177 90 -4 124 -21 151 -77 13 -28 16 -73 16
-270 0 -263 4 -286 61 -327 24 -17 51 -24 95 -27 128 -8 193 53 194 183 0 75
23 124 70 147 31 16 67 18 285 18 230 0 253 -2 282 -20 52 -31 65 -60 68 -151
2 -86 14 -112 69 -153 26 -20 43 -21 267 -24 219 -3 242 -1 283 17 60 26 80
65 81 156 0 122 -52 175 -173 175 -126 0 -171 43 -176 167 -3 90 -22 134 -69
163 -29 18 -52 20 -277 20 -269 0 -291 4 -334 63 -20 27 -21 43 -26 467 -5
421 -6 440 -25 466 -45 60 -66 64 -328 64 -260 0 -290 5 -324 56 -11 18 -20
56 -24 110 -11 138 -55 184 -177 184 -126 0 -171 43 -176 167 -4 136 -48 183
-169 183 -128 0 -179 46 -185 166 -7 135 39 185 178 194 135 8 175 48 174 175
0 57 -4 77 -22 102 -36 51 -67 65 -164 73 -74 6 -93 11 -114 31 -39 37 -47 57
-54 147 -8 93 -25 126 -81 154 -31 17 -82 18 -619 18 -537 0 -588 -1 -619 -18z
m888 -347 c16 -8 40 -28 55 -45 l26 -32 0 -263 0 -263 -27 -33 c-35 -42 -79
-59 -150 -59 -70 0 -119 22 -150 69 -22 33 -23 41 -23 285 0 233 2 253 20 284
32 52 74 72 153 72 40 0 80 -6 96 -15z"/>
<path d="M8133 5921 c-55 -25 -75 -66 -81 -161 -8 -130 -38 -161 -167 -171
-45 -4 -96 -14 -114 -23 -43 -22 -70 -84 -71 -156 0 -111 58 -170 167 -170 77
0 120 -16 156 -59 25 -30 27 -39 27 -121 0 -82 -2 -91 -27 -121 -36 -43 -79
-59 -156 -59 -109 0 -167 -59 -167 -170 1 -72 28 -133 72 -157 29 -16 60 -18
283 -18 248 0 250 0 284 24 62 45 61 31 61 678 0 648 2 630 -63 677 -40 30
-148 33 -204 7z"/>
<path d="M1436 5910 c-44 -28 -65 -75 -66 -145 0 -117 49 -165 179 -173 49 -3
87 -11 106 -23 58 -35 60 -41 65 -326 5 -245 6 -263 26 -290 31 -43 80 -63
152 -63 78 0 131 -25 154 -72 10 -18 19 -68 22 -111 5 -84 19 -115 63 -144 24
-16 61 -19 288 -23 249 -5 261 -6 291 -27 40 -29 64 -88 64 -159 0 -118 47
-164 168 -164 84 0 119 15 148 64 17 28 19 57 22 263 3 215 2 235 -17 278 -25
57 -78 84 -164 85 -117 0 -162 46 -169 171 -6 91 -28 136 -78 161 -30 16 -66
18 -273 18 -265 0 -287 4 -330 64 -32 46 -37 159 -8 218 36 76 15 72 501 78
430 5 435 5 471 28 20 12 43 37 50 55 21 48 18 155 -5 193 -40 68 8 64 -853
64 -754 0 -779 -1 -807 -20z"/>
<path d="M7400 5892 c-32 -31 -39 -47 -45 -93 -17 -139 62 -222 198 -206 100
12 137 57 137 167 0 128 -43 170 -174 170 -77 0 -79 0 -116 -38z"/>
<path d="M3201 5563 c-91 -45 -96 -232 -8 -297 23 -17 43 -21 107 -21 64 0 84
4 107 21 89 65 83 253 -10 297 -46 22 -151 22 -196 0z"/>
<path d="M5321 5212 c-60 -30 -76 -63 -76 -152 0 -89 16 -122 76 -152 45 -24
132 -23 185 1 52 24 74 68 74 151 0 83 -22 127 -74 151 -53 24 -140 25 -185 1z"/>
<path d="M6045 4870 c-71 -24 -95 -64 -95 -160 0 -124 45 -170 167 -170 67 0
117 21 147 63 16 21 20 43 20 100 1 85 -18 128 -66 153 -38 20 -132 27 -173
14z"/>
<path d="M6746 4870 c-63 -20 -96 -76 -96 -162 1 -116 54 -168 172 -168 76 0
123 -21 155 -69 19 -28 23 -48 23 -108 0 -136 -43 -184 -169 -190 -43 -2 -90
-11 -109 -20 -46 -23 -72 -78 -72 -150 0 -72 23 -120 70 -148 33 -19 52 -20
280 -20 243 0 245 0 279 24 60 43 61 48 61 498 0 449 0 451 -63 497 -27 20
-43 21 -265 23 -130 1 -250 -2 -266 -7z"/>
<path d="M3565 4516 c-16 -7 -41 -26 -55 -40 -21 -24 -25 -39 -28 -104 -3 -87
13 -131 61 -166 41 -30 141 -34 200 -8 61 27 81 66 82 157 0 84 -22 131 -75
157 -42 21 -141 23 -185 4z"/>
<path d="M6410 4523 c-70 -14 -110 -76 -110 -168 0 -119 47 -165 168 -165 121
0 166 43 167 160 0 80 -17 124 -61 151 -34 21 -117 32 -164 22z"/>
<path d="M7782 4160 c-32 -15 -47 -30 -62 -62 -18 -39 -20 -67 -20 -276 0
-257 -5 -283 -59 -321 -25 -18 -47 -23 -109 -25 -97 -3 -137 -22 -163 -79 -16
-37 -19 -68 -19 -277 0 -204 2 -240 18 -270 25 -50 68 -70 166 -79 52 -5 95
-15 111 -25 36 -24 55 -73 55 -143 1 -128 67 -189 194 -181 44 3 71 10 95 27
60 43 61 48 61 503 0 373 2 416 18 447 29 58 61 74 160 81 98 6 131 22 156 75
13 27 16 74 16 272 0 262 -4 284 -63 327 -27 20 -44 21 -270 24 -223 2 -245 1
-285 -18z"/>
<path d="M1678 3820 c-116 -20 -228 -103 -273 -203 -45 -98 -46 -133 -43
-1062 l3 -880 23 -59 c45 -120 118 -190 242 -232 52 -18 102 -19 975 -19 l920
0 57 23 c110 45 186 124 225 236 17 48 18 112 18 976 l0 925 -24 58 c-51 128
-161 215 -296 237 -72 12 -1758 11 -1827 0z m1613 -356 c40 -12 67 -29 105
-68 87 -86 84 -60 84 -801 0 -725 1 -711 -73 -792 -80 -88 -34 -83 -811 -84
l-686 -1 -42 22 c-57 29 -100 72 -127 124 -21 44 -21 46 -21 731 0 774 -5 729
78 809 80 77 65 75 793 76 564 0 652 -2 700 -16z"/>
<path d="M2149 3099 c-76 -44 -74 -33 -74 -506 0 -410 1 -422 21 -449 11 -15
33 -37 48 -48 27 -20 39 -21 449 -21 403 0 423 1 455 20 18 11 41 38 52 60 19
39 20 63 20 440 0 385 -1 400 -21 442 -14 30 -33 50 -60 63 -36 19 -60 20
-446 20 -395 0 -409 -1 -444 -21z"/>
<path d="M4992 3823 c-13 -2 -41 -22 -62 -43 -30 -30 -39 -48 -45 -89 -12 -86
14 -158 68 -191 45 -28 169 -28 214 0 49 29 68 73 67 155 0 78 -18 116 -70
150 -27 18 -126 28 -172 18z"/>
<path d="M8505 3466 c-95 -35 -108 -81 -103 -370 3 -210 4 -223 25 -252 40
-55 70 -69 154 -69 67 0 80 3 111 27 64 49 68 69 68 320 0 212 -1 226 -22 268
-13 25 -37 53 -55 63 -44 25 -128 31 -178 13z"/>
<path d="M4249 3097 c-73 -48 -69 -2 -67 -864 3 -762 3 -772 24 -799 51 -68
52 -69 310 -72 214 -3 237 -1 278 17 63 27 78 57 86 160 10 138 55 181 187
181 120 0 168 50 167 175 0 121 -45 163 -185 175 -75 6 -94 11 -115 31 -48 44
-49 52 -54 326 l-5 261 -25 28 c-35 37 -80 54 -147 54 -116 0 -163 46 -173
172 -7 93 -16 114 -61 152 -27 23 -39 26 -108 26 -64 0 -84 -4 -112 -23z"/>
<path d="M4953 3100 c-49 -29 -68 -73 -67 -155 0 -78 17 -115 71 -151 43 -29
167 -27 209 3 53 38 68 70 68 148 1 127 -47 175 -174 175 -57 0 -83 -5 -107
-20z"/>
<path d="M5321 2402 c-62 -31 -76 -62 -76 -162 0 -80 2 -91 25 -115 35 -38 80
-55 147 -55 116 0 168 55 168 175 -1 89 -21 130 -78 156 -54 24 -141 25 -186
1z"/>
<path d="M6373 2401 c-57 -27 -77 -67 -78 -156 0 -120 52 -175 168 -175 67 0
112 17 147 54 21 24 25 39 28 104 3 87 -13 131 -61 166 -40 30 -148 33 -204 7z"/>
<path d="M7430 2401 c-57 -30 -73 -61 -80 -153 -6 -89 -14 -109 -54 -147 -21
-20 -40 -25 -115 -31 -139 -12 -181 -54 -181 -180 0 -76 20 -124 62 -150 32
-19 49 -20 465 -20 l431 0 33 27 c42 35 59 79 59 150 0 115 -48 160 -184 172
-52 5 -95 15 -111 25 -36 24 -55 73 -55 143 -1 84 -28 139 -82 163 -56 25
-142 26 -188 1z"/>
<path d="M5337 1706 c-73 -27 -97 -68 -97 -168 0 -84 22 -126 80 -155 85 -44
185 -24 238 45 24 31 27 44 27 111 0 82 -17 120 -70 155 -35 23 -131 30 -178
12z"/>
<path d="M6745 1706 c-73 -27 -113 -105 -101 -195 9 -63 35 -103 86 -128 86
-44 202 -17 245 57 14 25 20 53 20 100 0 76 -23 124 -72 153 -44 25 -128 31
-178 13z"/>
<path d="M8167 1713 c-47 -8 -104 -74 -112 -128 -21 -134 49 -225 172 -225 66
0 133 34 155 80 12 23 18 58 18 100 0 78 -21 126 -67 153 -33 19 -116 29 -166
20z"/>
</g>
</svg>
